<svg width="16" height="26" viewBox="0 0 16 26" fill="none" xmlns="http://www.w3.org/2000/svg">
<path d="M0.934081 2.88517C0.934081 2.20038 1.1777 1.61436 1.66494 1.12712C2.15301 0.639054 2.73944 0.395019 3.42423 0.395019L13.3848 0.395019C14.0696 0.395019 14.6557 0.639055 15.1429 1.12712C15.631 1.61436 15.875 2.20038 15.875 2.88517L15.875 22.8064C15.875 23.4912 15.631 24.0776 15.1429 24.5657C14.6557 25.0529 14.0696 25.2966 13.3848 25.2966L3.42423 25.2966C2.73944 25.2966 2.15301 25.0529 1.66494 24.5657C1.1777 24.0776 0.934081 23.4912 0.934081 22.8064L0.934081 2.88517ZM4.66931 7.86548C4.66931 8.21825 4.78884 8.51416 5.02789 8.75322C5.26612 8.99144 5.56162 9.11056 5.91439 9.11056L7.15946 9.11056L7.15946 10.3556C7.15946 10.7084 7.27899 11.0043 7.51805 11.2434C7.75627 11.4816 8.05177 11.6007 8.40454 11.6007C8.75731 11.6007 9.05323 11.4816 9.29228 11.2434C9.5305 11.0043 9.64962 10.7084 9.64962 10.3556L9.64962 9.11056L10.8947 9.11056C11.2475 9.11056 11.5434 8.99144 11.7824 8.75322C12.0207 8.51416 12.1398 8.21825 12.1398 7.86548C12.1398 7.51271 12.0207 7.21679 11.7824 6.97774C11.5434 6.73952 11.2475 6.6204 10.8947 6.6204L9.64962 6.6204L9.64962 5.37533C9.64962 5.02255 9.53051 4.72664 9.29228 4.48759C9.05323 4.24936 8.75731 4.13025 8.40454 4.13025C8.05177 4.13025 7.75627 4.24936 7.51805 4.48759C7.27899 4.72664 7.15946 5.02255 7.15946 5.37533L7.15946 6.6204L5.91439 6.6204C5.56162 6.6204 5.26612 6.73951 5.02789 6.97774C4.78884 7.21679 4.66931 7.51271 4.66931 7.86548ZM4.66931 15.9585C4.66931 16.4773 4.85109 16.918 5.21465 17.2807C5.57739 17.6443 6.01814 17.8261 6.53693 17.8261C7.05571 17.8261 7.49646 17.6443 7.8592 17.2807C8.22276 16.918 8.40454 16.4773 8.40454 15.9585C8.40454 15.4397 8.22276 14.9989 7.8592 14.6362C7.49646 14.2726 7.05571 14.0909 6.53693 14.0909C6.01814 14.0909 5.57739 14.2726 5.21465 14.6362C4.85109 14.9989 4.66931 15.4397 4.66931 15.9585ZM8.40454 19.6937C8.40454 20.2125 8.58632 20.6532 8.94988 21.016C9.31262 21.3795 9.75337 21.5613 10.2722 21.5613C10.7909 21.5613 11.2317 21.3795 11.5944 21.016C11.958 20.6532 12.1398 20.2125 12.1398 19.6937C12.1398 19.1749 11.958 18.7342 11.5944 18.3714C11.2317 18.0079 10.7909 17.8261 10.2722 17.8261C9.75337 17.8261 9.31262 18.0079 8.94988 18.3714C8.58632 18.7342 8.40454 19.1749 8.40454 19.6937Z" fill="#2B788B"/>
</svg>
